<svg xmlns="http://www.w3.org/2000/svg" width="33" height="33" fill="none" viewBox="0 0 33 33">
  <g clip-path="url(#a)">
    <path fill="#A4A1AA" fill-rule="evenodd" d="M16.499 10.076a8 8 0 0 0-8 8 8 8 0 1 0 16 0 8 8 0 0 0-8-8Zm4.555 11.905a5.998 5.998 0 0 1-8.459.65 5.997 5.997 0 0 1-.65-8.46 6 6 0 0 1 9.109 7.809Z" clip-rule="evenodd"/>
    <path fill="#A4A1AA" fill-rule="evenodd" d="M16.499 14.076a4 4 0 0 0-4 3.999v.002a.5.5 0 0 0 1 0v-.002a3 3 0 0 1 3-3 .5.5 0 0 0 0-1Z" clip-rule="evenodd"/>
    <path fill="#A4A1AA" fill-rule="evenodd" d="m29.991 9.117-4.334-.723-1.373-3.434a2.988 2.988 0 0 0-2.785-1.885h-10A2.99 2.99 0 0 0 8.713 4.96L7.341 8.394l-4.333.723a2.989 2.989 0 0 0-2.509 2.958v15c0 1.654 1.346 3 3 3h26c1.654 0 3-1.346 3-3v-15a2.989 2.989 0 0 0-2.508-2.958Zm.508 17.958a1 1 0 0 1-1 1h-26a1 1 0 0 1-1-1v-15a1 1 0 0 1 .836-.986l5.444-.907 1.791-4.478c.153-.38.52-.63.929-.63h10c.408 0 .775.25.928.63l1.791 4.478 5.445.907a1 1 0 0 1 .836.986v15Z" clip-rule="evenodd"/>
  </g>
  <defs>
    <clipPath id="a">
      <path fill="#fff" d="M.501.075h32v32h-32z"/>
    </clipPath>
  </defs>
</svg>
