<svg xmlns="http://www.w3.org/2000/svg" width="20" height="21" fill="none" viewBox="0 0 20 21">
  <g clip-path="url(#a)">
    <path fill="#FF8D72" fill-rule="evenodd" d="M10 .428c5.523 0 10 4.478 10 10 0 5.523-4.477 10-10 10-5.522 0-10-4.477-10-10 0-5.522 4.478-10 10-10ZM8.613 5.396h1.223a.41.41 0 0 1 .406.407v4.71h4.299c.225 0 .407.184.407.407v1.222a.408.408 0 0 1-.407.407H8.205V5.803c0-.225.184-.407.408-.407ZM10 2.699a7.73 7.73 0 0 1 7.73 7.73A7.73 7.73 0 0 1 10 18.157a7.73 7.73 0 0 1 0-15.459Z" clip-rule="evenodd"/>
  </g>
  <defs>
    <clipPath id="a">
      <path fill="#fff" d="M0 .428h20v20H0z"/>
    </clipPath>
  </defs>
</svg>
