<svg xmlns="http://www.w3.org/2000/svg" width="20" height="20" fill="none" viewBox="0 0 20 20">
  <path fill="#000" d="M15.525 5.95A2.978 2.978 0 0 0 18.5 2.975 2.978 2.978 0 0 0 15.525 0a2.978 2.978 0 0 0-2.975 2.975 2.978 2.978 0 0 0 2.975 2.975Zm1.275 6.8V7.471a4.71 4.71 0 0 1-1.275.179H15.1v5.1a2.547 2.547 0 0 1-2.55 2.55h-6.8a2.547 2.547 0 0 1-2.55-2.55v-6.8A2.547 2.547 0 0 1 5.75 3.4h5.1v-.425c0-.425.06-.85.178-1.275H5.75A4.252 4.252 0 0 0 1.5 5.95v6.8A4.252 4.252 0 0 0 5.75 17h6.8a4.252 4.252 0 0 0 4.25-4.25Z"/>
</svg>
