<svg xmlns="http://www.w3.org/2000/svg" width="25" height="26" fill="none" viewBox="0 0 25 26">
  <path fill="#A4A1AA" d="M12.505 7.385a5.601 5.601 0 0 0-5.61 5.61 5.601 5.601 0 0 0 5.61 5.61 5.601 5.601 0 0 0 5.61-5.61 5.601 5.601 0 0 0-5.61-5.61Zm0 9.257a3.654 3.654 0 0 1-3.648-3.647 3.651 3.651 0 0 1 3.648-3.648 3.651 3.651 0 0 1 3.647 3.648 3.654 3.654 0 0 1-3.647 3.647Zm7.148-9.487c0 .728-.586 1.309-1.308 1.309a1.309 1.309 0 1 1 1.309-1.309Zm3.716 1.328c-.083-1.753-.483-3.306-1.768-4.585-1.279-1.28-2.832-1.68-4.585-1.767-1.806-.103-7.221-.103-9.028 0-1.748.083-3.3.483-4.585 1.762-1.284 1.28-1.68 2.832-1.768 4.585-.102 1.807-.102 7.222 0 9.029.084 1.752.484 3.305 1.768 4.585 1.284 1.279 2.832 1.68 4.585 1.767 1.807.103 7.222.103 9.028 0 1.753-.083 3.306-.483 4.585-1.767 1.28-1.28 1.68-2.832 1.768-4.585.102-1.807.102-7.217 0-9.024Zm-2.334 10.962a3.692 3.692 0 0 1-2.08 2.08c-1.44.571-4.859.44-6.45.44-1.592 0-5.015.127-6.45-.44a3.692 3.692 0 0 1-2.08-2.08c-.572-1.44-.44-4.858-.44-6.45 0-1.592-.127-5.015.44-6.45a3.693 3.693 0 0 1 2.08-2.08c1.44-.572 4.858-.44 6.45-.44 1.591 0 5.014-.127 6.45.44a3.692 3.692 0 0 1 2.08 2.08c.571 1.44.44 4.858.44 6.45 0 1.592.131 5.014-.44 6.45Z"/>
</svg>
