<svg xmlns="http://www.w3.org/2000/svg" width="109" height="20" fill="none" viewBox="0 0 109 20">
  <path fill="#FF8D72" d="M5.07 14.221V8.894H0V6.702h5.07v-5.37h2.32v5.37h4.962v2.192H7.39v5.327H5.07Z"/>
  <path fill="#EA3C12" d="M14.05 15.295V.258h2.557v6.251h7.261V.258h2.557v15.037h-2.557V8.786h-7.26v6.51H14.05Zm19.242 0c-.831 0-1.576-.193-2.235-.58a4.506 4.506 0 0 1-1.568-1.59 4.495 4.495 0 0 1-.558-2.212c0-.63.143-1.224.43-1.783a4.15 4.15 0 0 1 1.245-1.44 4.06 4.06 0 0 1-1.224-1.396 3.766 3.766 0 0 1-.43-1.74c0-.802.186-1.525.559-2.17A4.443 4.443 0 0 1 31.057.839a4.096 4.096 0 0 1 2.149-.58h6.058v2.277h-5.78c-.357 0-.687.093-.987.28a2.02 2.02 0 0 0-.73.708 2.04 2.04 0 0 0-.258 1.031c0 .344.093.666.279.967.186.3.43.544.73.73a2 2 0 0 0 1.01.258h4.984v2.277h-4.855a2.146 2.146 0 0 0-1.912 1.096 2.162 2.162 0 0 0-.258 1.053c0 .372.086.723.258 1.052.186.315.437.573.752.774.33.186.701.279 1.117.279h5.65v2.255h-5.972Zm16.434 4.684c-.759 0-1.425-.144-1.998-.43a2.86 2.86 0 0 1-1.31-1.225c-.3-.53-.451-1.167-.451-1.912 0-.673.129-1.417.386-2.234.273-.816.76-1.654 1.461-2.513.702-.86 1.697-1.683 2.986-2.47V2.512h-3.115V.258h5.672v15.768c0 .759-.143 1.44-.43 2.04a3.067 3.067 0 0 1-1.224 1.397c-.53.344-1.19.515-1.977.515Zm-.172-2.3c.244 0 .459-.063.645-.192.186-.13.33-.315.43-.559.1-.229.15-.508.15-.838v-4.275c-.788.63-1.354 1.232-1.697 1.805-.344.573-.552 1.081-.623 1.525a6.5 6.5 0 0 0-.108.988c0 .502.122.881.366 1.139.243.272.522.408.837.408Zm12.951-2.126c-1.189 0-2.241-.243-3.158-.73a5.53 5.53 0 0 1-2.17-2.127c-.515-.916-.773-2.012-.773-3.287V.258h2.557v9.366c0 .659.143 1.268.43 1.826.3.559.715 1.01 1.245 1.354.53.329 1.16.494 1.89.494.731 0 1.354-.165 1.87-.495.53-.343.938-.794 1.224-1.353.287-.558.43-1.167.43-1.826V.258h2.578v9.151c0 1.275-.265 2.37-.795 3.287a5.531 5.531 0 0 1-2.17 2.127c-.916.487-1.969.73-3.158.73Zm13.192-.258c-.845 0-1.59-.186-2.234-.558a4.153 4.153 0 0 1-1.483-1.547 4.492 4.492 0 0 1-.515-2.148V.258h2.578v11.106c0 .458.15.852.45 1.182.316.33.717.494 1.204.494h3.996v2.255h-3.996ZM92.704 20c-.773 0-1.454-.143-2.04-.43a3.078 3.078 0 0 1-1.333-1.267c-.3-.544-.45-1.196-.45-1.955a8.162 8.162 0 0 1 .085-1.16c-1.174.043-2.248-.122-3.222-.494a7.464 7.464 0 0 1-2.535-1.59 7.254 7.254 0 0 1-1.633-2.427c-.387-.946-.58-1.97-.58-3.072 0-1.046.18-2.027.537-2.943a7.315 7.315 0 0 1 1.547-2.428A6.978 6.978 0 0 1 85.507.602C86.453.2 87.505 0 88.665 0c1.175 0 2.234.193 3.18.58a6.877 6.877 0 0 1 2.427 1.59 7.133 7.133 0 0 1 1.547 2.384c.358.888.537 1.848.537 2.879v8.593c0 .759-.143 1.44-.43 2.04a3.194 3.194 0 0 1-1.224 1.418c-.544.344-1.21.516-1.998.516Zm-.172-2.299c.387 0 .688-.143.902-.43.23-.286.344-.68.344-1.18v-4.47c-.602.46-1.074.91-1.418 1.354-.344.444-.594.867-.752 1.268a5.43 5.43 0 0 0-.279 1.074 8.732 8.732 0 0 0-.043.752c0 .344.057.637.172.88.115.244.265.43.451.56.2.128.408.192.623.192Zm-3.867-4.747c.23 0 .437-.007.623-.022.186-.028.387-.064.602-.107.229-.43.515-.867.859-1.31a8.244 8.244 0 0 1 1.267-1.29c.502-.43 1.089-.837 1.762-1.224V7.433c0-.73-.129-1.41-.387-2.04a4.507 4.507 0 0 0-1.074-1.634 4.804 4.804 0 0 0-1.61-1.095 4.995 4.995 0 0 0-2.042-.408c-.73 0-1.41.136-2.04.408a4.922 4.922 0 0 0-1.612 1.138A5.048 5.048 0 0 0 83.94 5.5a5.617 5.617 0 0 0-.386 2.106c0 .759.128 1.468.386 2.126.258.645.616 1.21 1.074 1.698.459.472.996.845 1.611 1.117.63.272 1.31.408 2.041.408Zm14.213 2.341c-.83 0-1.575-.193-2.234-.58a4.508 4.508 0 0 1-1.568-1.59 4.495 4.495 0 0 1-.558-2.212c0-.63.143-1.224.43-1.783.3-.573.715-1.053 1.245-1.44a4.062 4.062 0 0 1-1.224-1.396 3.767 3.767 0 0 1-.43-1.74c0-.802.186-1.525.559-2.17a4.446 4.446 0 0 1 1.546-1.546 4.099 4.099 0 0 1 2.149-.58h6.058v2.277h-5.779a1.84 1.84 0 0 0-.988.28 2.035 2.035 0 0 0-.731.708 2.04 2.04 0 0 0-.258 1.031c0 .344.094.666.28.967.186.3.429.544.73.73.301.172.637.258 1.01.258h4.984v2.277h-4.855a2.144 2.144 0 0 0-1.912 1.096 2.16 2.16 0 0 0-.258 1.053c0 .372.086.723.258 1.052.186.315.437.573.752.774.329.186.701.279 1.117.279h5.65v2.255h-5.973Z"/>
</svg>
