<svg xmlns="http://www.w3.org/2000/svg" width="25" height="26" fill="none" viewBox="0 0 25 26">
  <path fill="#A4A1AA" d="M21.094 2.063H3.906a2.344 2.344 0 0 0-2.344 2.343v17.188a2.344 2.344 0 0 0 2.344 2.343h17.188a2.344 2.344 0 0 0 2.343-2.343V4.406a2.344 2.344 0 0 0-2.343-2.343ZM10.26 13.297c-4.429-3.214-4.383-3.222-5.572-4.147V7.92c0-.646.524-1.171 1.171-1.171h13.282c.647 0 1.172.525 1.172 1.172V9.15c-1.19.926-1.145.934-5.573 4.147-.512.374-1.532 1.275-2.24 1.264-.708.011-1.727-.89-2.24-1.264Zm10.053-2.165v6.945c0 .647-.525 1.172-1.172 1.172H5.859a1.172 1.172 0 0 1-1.171-1.172v-6.944c.681.527 1.627 1.232 4.653 3.428.692.505 1.854 1.57 3.159 1.563 1.313.006 2.492-1.076 3.16-1.564 3.025-2.195 3.971-2.9 4.652-3.428Z"/>
</svg>
